<svg xmlns="http://www.w3.org/2000/svg" viewBox="0 0 500 500"><title>Artboard 1</title><g id="BACKGROUND"><rect width="500" height="500" style="fill:#96c6be"/></g><g id="OBJECTS"><text transform="translate(106.22 373.45)" style="font-size:51.793460845947266px;fill:#002c2c;font-family:OpenSans-Extrabold, Open Sans;font-weight:700"><tspan style="letter-spacing:-0.05699847797931039em">Tri</tspan><tspan x="62.89" y="0">p</tspan><tspan x="96.2" y="0" xml:space="preserve" style="letter-spacing:-0.05697962304117631em"> Hoppe</tspan><tspan x="263.25" y="0" style="letter-spacing:-0.00001885493813407555em">r</tspan></text><text transform="translate(71.13 406.3)" style="font-size:22.408720016479492px;fill:#002c2c;font-family:OpenSans-Bold, Open Sans;font-weight:700"><tspan style="letter-spacing:-0.05695850483924797em">Tak</tspan><tspan x="36.58" y="0" style="letter-spacing:0.00004357957524043456em">e</tspan><tspan x="49.82" y="0" xml:space="preserve" style="letter-spacing:-0.0570020844144884em"> th</tspan><tspan x="76.26" y="0">e</tspan><tspan x="89.5" y="0" xml:space="preserve" style="letter-spacing:-0.0570020844144884em"> Leap</tspan><tspan x="142.55" y="0">.</tspan><tspan x="148.94" y="0" xml:space="preserve" style="letter-spacing:-0.0570020844144884em"> Fro</tspan><tspan x="186" y="0">m</tspan><tspan x="208" y="0" xml:space="preserve" style="letter-spacing:-0.0570020844144884em"> Hop</tspan><tspan x="253.92" y="0">s</tspan><tspan x="265.06" y="0" xml:space="preserve" style="letter-spacing:-0.0570020844144884em"> t</tspan><tspan x="278.05" y="0">o</tspan><tspan x="291.92" y="0" xml:space="preserve" style="letter-spacing:-0.0570020844144884em"> Stops</tspan><tspan x="351.35" y="0">.</tspan></text><path d="M155.32,239.86c2.49,13,24.06,52.27,49.51,61.13s76.89,1.65,87.68-6.09S338.7,243.46,339.8,239s-.27-10.23-2.21-11.06-22.68-16.05-22.68-16.05-15.49-4.42-19.08-5.8-14.66-3.05-20.19-1.39-7.75.83-14.66,3-41.49-29.31-41.49-29.31Z" style="fill:#fff;fill-rule:evenodd"/><path d="M200.27,138.07c-4.29-3.59-17-5.67-22.27-3.87s-10.93,6.64-12,9.54-3.46,9.13-4.15,10.24-16.6,10-16.6,10H261s-21.3-12.58-21.58-14.52-1.1-9-3.87-12.58-14.94-6.5-19.64-4.84-11.34,11.48-11.34,11.48Z" style="fill:#fff;fill-rule:evenodd"/><path d="M259.67,225.83,222,189.7l-62.57,58a92,92,0,0,0,5,10.78q2.09,3.81,4.52,7.4a62.49,62.49,0,0,1,8.08,4.82,14.49,14.49,0,0,0,15.5,0,59.39,59.39,0,0,1,8.18-4.87,23.72,23.72,0,0,1,8.64-2.37,4.48,4.48,0,0,1,.82,0v.11a5.13,5.13,0,0,1,1.52-.12,23.76,23.76,0,0,1,8.65,2.37,60.6,60.6,0,0,1,8.18,4.87,14.49,14.49,0,0,0,15.5,0c9.1-6.21,16.69-10.11,27.82-4.87a59.92,59.92,0,0,1,8.17,4.87,14.47,14.47,0,0,0,15.5,0,71.37,71.37,0,0,1,6.66-4.11C287.88,252.88,273.63,239.8,259.67,225.83Z" style="fill:#919f60;fill-rule:evenodd"/><path d="M314.38,218.22,290.52,242.8l28,26.81a91.58,91.58,0,0,0,15.31-31.38Z" style="fill:#6d774c;fill-rule:evenodd"/><path d="M267.51,272.34a12.31,12.31,0,0,0-11,0,53.32,53.32,0,0,0-6.87,4.15,22.18,22.18,0,0,1-7.23,3.31,33.46,33.46,0,0,1-12.3,0,22.18,22.18,0,0,1-7.23-3.31,51.36,51.36,0,0,0-6.87-4.14,13.85,13.85,0,0,0-5-1.44,4.83,4.83,0,0,1-.85-.12v.11H210a14,14,0,0,0-5,1.43,52.68,52.68,0,0,0-6.88,4.15,22.09,22.09,0,0,1-7.23,3.31,34.12,34.12,0,0,1-9.66.41,91.08,91.08,0,0,0,9.88,8.29,12.9,12.9,0,0,0,1.39-.81,59.92,59.92,0,0,1,8.17-4.87,23.64,23.64,0,0,1,8.65-2.38,5.59,5.59,0,0,1,.82,0v.11a5.49,5.49,0,0,1,1.52-.12,23.59,23.59,0,0,1,8.65,2.38,60.6,60.6,0,0,1,8.18,4.87,14.49,14.49,0,0,0,15.5,0c9.1-6.21,16.69-10.12,27.82-4.87a59.92,59.92,0,0,1,8.17,4.87c8.66,5.91,19-1.54,26.16-6.14,1.91-1.22,3.85-2.74,5.16-3.78.45-.47.89-.94,1.33-1.42l-4.33-4.15-.32.14a53.28,53.28,0,0,0-6.86,4.15,22.22,22.22,0,0,1-7.24,3.31,33.41,33.41,0,0,1-12.29,0,22.22,22.22,0,0,1-7.24-3.31A52.61,52.61,0,0,0,267.51,272.34Z" style="fill:#6bb3b1;fill-rule:evenodd"/><path d="M267.51,289.64a12.24,12.24,0,0,0-11,0,52,52,0,0,0-6.87,4.14,22.18,22.18,0,0,1-7.23,3.31,33.46,33.46,0,0,1-12.3,0,22.18,22.18,0,0,1-7.23-3.31,52,52,0,0,0-6.87-4.14,13.63,13.63,0,0,0-5-1.43,6,6,0,0,1-.85-.13v.11l-.14,0a13.58,13.58,0,0,0-5,1.43,47.87,47.87,0,0,0-6.36,3.79,92.08,92.08,0,0,0,85.13,4,17.54,17.54,0,0,1-2.18-.37,22.22,22.22,0,0,1-7.24-3.31A51.33,51.33,0,0,0,267.51,289.64Z" style="fill:#6bb3b1;fill-rule:evenodd"/><path d="M158.28,163.36h88.91l-8.54-5a6.89,6.89,0,0,1-3.22-4.27,16.47,16.47,0,0,1-.55-3.5,13.58,13.58,0,0,0-3.59-8.61,11.91,11.91,0,0,0-8-3.5,13.81,13.81,0,0,0-7.33,1.75,19.67,19.67,0,0,0-6.55,6.08A12.55,12.55,0,0,0,208,149l-.08.23c-.72,1.89-1.19,3.11-3.44,3.85-3.71,1.21-5.21-.3-6.75-5a11.17,11.17,0,0,0-6.85-6.76,16.77,16.77,0,0,0-7.93-1,15.92,15.92,0,0,0-7.64,2.85c-3.34,2.39-5.87,6.4-6.5,12.23a4.53,4.53,0,0,1-2.41,3.67Z" style="fill:#d8d8d8;fill-rule:evenodd"/><path d="M283.05,211.44a38.32,38.32,0,0,0-19.5,5.36l3.28,3.29,15.26,14.62a3.28,3.28,0,0,0,.94.13,3.47,3.47,0,0,0,2.44-1l17.1-17.11A38.41,38.41,0,0,0,283.05,211.44Z" style="fill:#f4dd58;fill-rule:evenodd"/><path d="M293.74,182.51a4.55,4.55,0,0,1,8.81,2.25l-2.36,9.17a4.55,4.55,0,1,1-8.81-2.25l2.36-9.17ZM256.51,286.32a52,52,0,0,0-6.87,4.14,22,22,0,0,1-7.23,3.31,33.46,33.46,0,0,1-12.3,0,22,22,0,0,1-7.23-3.31,53.11,53.11,0,0,0-6.87-4.14,13.83,13.83,0,0,0-5-1.43,4.85,4.85,0,0,1-.85-.13v.11l-.14,0a13.58,13.58,0,0,0-5,1.43,47.87,47.87,0,0,0-6.36,3.79,92.08,92.08,0,0,0,85.13,4,17.54,17.54,0,0,1-2.18-.37,22,22,0,0,1-7.24-3.31,52.41,52.41,0,0,0-6.86-4.14,12.24,12.24,0,0,0-11,0Zm-65.38-1.14a91.08,91.08,0,0,1-9.88-8.29,34.12,34.12,0,0,0,9.66-.41,22.09,22.09,0,0,0,7.23-3.31A51.4,51.4,0,0,1,205,269a13.58,13.58,0,0,1,5-1.43l.14,0v-.11a4.83,4.83,0,0,0,.85.12,13.85,13.85,0,0,1,5,1.44,51.36,51.36,0,0,1,6.87,4.14,22.18,22.18,0,0,0,7.23,3.31,33.46,33.46,0,0,0,12.3,0,22.18,22.18,0,0,0,7.23-3.31,52,52,0,0,1,6.87-4.14,12.24,12.24,0,0,1,11,0,51.33,51.33,0,0,1,6.86,4.14,22.22,22.22,0,0,0,7.24,3.31,33.41,33.41,0,0,0,12.29,0,22.22,22.22,0,0,0,7.24-3.31A52,52,0,0,1,308,269l.32-.15,4.33,4.15c-.44.48-.88,1-1.33,1.42-1.31,1-3.25,2.56-5.16,3.78-7.14,4.6-17.5,12-26.16,6.14a59.92,59.92,0,0,0-8.17-4.87c-11.13-5.25-18.72-1.34-27.82,4.87a14.49,14.49,0,0,1-15.5,0,60.6,60.6,0,0,0-8.18-4.87,23.59,23.59,0,0,0-8.65-2.38,5.13,5.13,0,0,0-1.52.13v-.12a5.59,5.59,0,0,0-.82,0,23.64,23.64,0,0,0-8.65,2.38,59.92,59.92,0,0,0-8.17,4.87,12.9,12.9,0,0,1-1.39.81Zm-22.19-22.93a61.51,61.51,0,0,1,8.08,4.83,14.49,14.49,0,0,0,15.5,0,59.39,59.39,0,0,1,8.18-4.87,23.54,23.54,0,0,1,8.64-2.38,5.59,5.59,0,0,1,.82,0V260a5.49,5.49,0,0,1,1.52-.12,23.76,23.76,0,0,1,8.65,2.37,61.8,61.8,0,0,1,8.18,4.88,14.51,14.51,0,0,0,15.5,0c9.1-6.21,16.69-10.12,27.82-4.87a59.92,59.92,0,0,1,8.17,4.87,14.51,14.51,0,0,0,15.5,0,69.3,69.3,0,0,1,6.66-4.11c-14.28-13.68-28.53-26.77-42.49-40.73L222,186.11l-62.57,58a91.8,91.8,0,0,0,5,10.77q2.09,3.81,4.52,7.4ZM251.32,110c-2.07-.12-4.15-.19-6.25-.19a4.44,4.44,0,0,0-1.32.2c-1.3-.11-2.63-.21-4-.3a4.56,4.56,0,1,0-.57,9.1c3.48.23,6.75.51,9.86.86l5.38,12.62a4.34,4.34,0,0,0,8-3.4l-3.32-7.79c2.19.38,4.31.81,6.39,1.28l1.78.41,1.61,4.14a3.25,3.25,0,0,0,6.17-2c4.19,1.29,8.39,2.79,12.79,4.55q3.6,1.89,7,4.08a92.24,92.24,0,0,1,34,39.42c1.05,2.32,2,4.77,2.94,7.3s1.64,4.89,2.23,7.18,1.21,5.65,1.54,7.49c.12.67.21,1.17.32,1.61.34,2.21.61,4.52.8,6.95s.28,4.79.28,7.29a93.1,93.1,0,0,1-.92,13l-18.45-19a4.56,4.56,0,0,0-6.44.09l-1.71,1.76a47.58,47.58,0,0,0-52.72.1L225.2,176.58h0a4.55,4.55,0,0,0-6.23-.06l-62.65,58c-.08-.33-.17-.66-.26-1a92.13,92.13,0,0,1-2.83-22.75,4.57,4.57,0,1,0-9.13,0,101,101,0,0,0,202,0q0-4-.32-8c-.2-2.57-.52-5.21-.94-7.91a5.72,5.72,0,0,0-.2-.79c-.12-.33,0-.11-.08-.78-.33-1.84-.91-5.06-1.72-8.18-.71-2.75-1.54-5.42-2.44-8s-2.05-5.35-3.24-8a101.33,101.33,0,0,0-37.37-43.35q-3.18-2.05-6.53-3.87a4.69,4.69,0,0,0-1.11-.65l-.38-.15a101.34,101.34,0,0,0-14.11-6,3.26,3.26,0,0,0-5.26-3.63l-1.6,1.56q-4.29-1.12-8.72-1.88l4.27-4.55a4.33,4.33,0,1,0-6.34-5.91L251.32,110Zm12.57,59.15H145.13c-1.76,0-2.59,0-3.22.06-2.57.09-4,.14-5.48-1.81-3.45-4.47-1.32-5.55,3.32-7.92l1.72-.91,18.65-9.81A24.51,24.51,0,0,1,182,127.94a26.08,26.08,0,0,1,12.21,1.59,21.48,21.48,0,0,1,9,6.5,27.87,27.87,0,0,1,8.34-7.14A22.78,22.78,0,0,1,223.73,126a21.08,21.08,0,0,1,14.09,6.25A22.5,22.5,0,0,1,244,146.52c0,.41.07.8.1,1.1l22.14,13.06a4.56,4.56,0,0,1-2.32,8.49ZM158.28,160l8.15-4.29a4.53,4.53,0,0,0,2.41-3.66c.63-5.84,3.16-9.84,6.5-12.24A15.92,15.92,0,0,1,183,137a16.89,16.89,0,0,1,7.93,1,11.17,11.17,0,0,1,6.85,6.76c1.54,4.72,3,6.23,6.75,5,2.25-.73,2.72-2,3.44-3.85l.08-.23a12.77,12.77,0,0,1,1.39-2.77,19.63,19.63,0,0,1,6.55-6.07,13.73,13.73,0,0,1,7.33-1.76,12,12,0,0,1,8,3.5,13.58,13.58,0,0,1,3.59,8.61,16.47,16.47,0,0,0,.55,3.5,6.89,6.89,0,0,0,3.22,4.27l8.54,5Zm127.19,70.2a3.43,3.43,0,0,1-2.44,1,3.67,3.67,0,0,1-.94-.12l-15.26-14.63-3.28-3.28a38.4,38.4,0,0,1,39-.07l-17.1,17.1Zm48.34,4.39A91.72,91.72,0,0,1,318.5,266l-28-26.82,23.86-24.58,19.43,20ZM312.9,180.69l-8.61,14.93a4.54,4.54,0,0,0,7.88,4.53l8.62-14.93a4.55,4.55,0,0,0-7.89-4.53Zm-34-6.68a4.57,4.57,0,1,1,9.13,0v17.23a4.57,4.57,0,1,1-9.13,0V174Zm-32.78,11.21a4.54,4.54,0,0,1,7.88-4.53l8.62,14.93a4.54,4.54,0,0,1-7.88,4.53l-8.62-14.93Zm28.42,6.63a4.55,4.55,0,1,1-8.77,2.42l-2.54-9.12a4.55,4.55,0,0,1,8.77-2.43Z" style="fill:#002c2c;fill-rule:evenodd"/></g></svg>